<svg version="1.0" xmlns="http://www.w3.org/2000/svg"
 width="150.000000pt" height="150.000000pt" viewBox="0 0 150.000000 150.000000"
 preserveAspectRatio="xMidYMid meet">
<style>
g {
  fill:#00003C; 
}
@media (prefers-color-scheme: dark) {
  g {
    fill: #fff;
  }
}
</style>
<g transform="translate(0.000000,150.000000) scale(0.100000,-0.100000)"
fill="#000000" stroke="none">
<path d="M622 1306 c-257 -63 -442 -299 -442 -566 0 -267 186 -504 441 -565
201 -47 398 7 544 150 59 57 81 88 121 170 l49 100 0 135 c0 121 -3 142 -26
207 -66 180 -228 325 -410 368 -77 18 -204 18 -277 1z m302 -77 c70 -21 131
-59 194 -121 189 -183 212 -469 55 -676 -218 -286 -642 -275 -842 23 -139 205
-107 483 74 653 65 61 138 107 154 97 5 -2 12 2 15 11 3 8 11 12 17 8 6 -3 14
-2 18 5 21 33 208 34 315 0z"/>
<path d="M642 1088 c-5 -7 -18 -39 -28 -71 -16 -52 -20 -57 -31 -41 -10 14
-13 15 -13 3 0 -8 -12 -20 -27 -25 l-28 -10 27 -6 c15 -3 25 -1 22 3 -3 5 2 9
10 9 9 0 16 -5 16 -11 0 -20 -21 -49 -35 -49 -8 0 -15 -7 -15 -16 0 -8 5 -12
10 -9 6 3 10 -1 10 -9 0 -9 -5 -16 -11 -16 -5 0 -7 -5 -4 -11 8 -12 -26 -139
-37 -139 -5 0 -8 7 -8 15 0 17 -16 20 -25 5 -3 -5 -1 -10 4 -10 6 0 11 -7 11
-15 0 -8 -4 -15 -10 -15 -14 0 -12 -28 2 -32 10 -4 7 -24 -11 -84 -34 -116
-38 -108 57 -114 51 -3 86 -10 91 -18 8 -14 152 -14 173 0 16 9 16 9 -52 12
-66 3 -100 13 -100 29 1 7 7 35 14 62 l13 50 89 0 88 0 9 -35 c18 -70 29 -89
58 -99 16 -5 29 -7 29 -4 0 3 7 0 15 -7 10 -9 15 -9 15 -1 0 7 20 11 49 11 28
0 52 4 55 9 3 5 -19 85 -50 177 -30 93 -56 178 -57 189 0 11 -4 22 -8 25 -3 3
-23 57 -44 120 -21 63 -42 121 -48 128 -6 8 -42 12 -112 12 -70 0 -106 -4
-113 -12z m139 -270 c26 -100 26 -98 -27 -98 -43 0 -46 2 -40 23 3 12 13 53
22 90 9 38 18 66 21 64 2 -3 13 -38 24 -79z"/>
<path d="M540 984 c0 -8 5 -12 10 -9 6 4 8 11 5 16 -9 14 -15 11 -15 -7z"/>
<path d="M470 805 c0 -8 2 -15 4 -15 2 0 6 7 10 15 3 8 1 15 -4 15 -6 0 -10
-7 -10 -15z"/>
<path d="M447 776 c-4 -10 -5 -21 -2 -24 9 -9 17 6 13 25 -3 17 -4 17 -11 -1z"/>
<path d="M481 744 c0 -11 3 -14 6 -6 3 7 2 16 -1 19 -3 4 -6 -2 -5 -13z"/>
<path d="M417 694 c7 -18 46 -19 41 -1 -3 6 -14 12 -25 13 -14 1 -20 -3 -16
-12z"/>
<path d="M440 649 c0 -5 5 -7 10 -4 6 3 10 8 10 11 0 2 -4 4 -10 4 -5 0 -10
-5 -10 -11z"/>
<path d="M680 510 c0 -5 5 -10 11 -10 5 0 7 5 4 10 -3 6 -8 10 -11 10 -2 0 -4
-4 -4 -10z"/>
<path d="M745 510 c3 -5 13 -10 21 -10 8 0 12 5 9 10 -3 6 -13 10 -21 10 -8 0
-12 -4 -9 -10z"/>
<path d="M1408 573 c6 -2 18 -2 25 0 6 3 1 5 -13 5 -14 0 -19 -2 -12 -5z"/>
<path d="M1290 9 c0 -5 5 -7 10 -4 6 3 10 8 10 11 0 2 -4 4 -10 4 -5 0 -10 -5
-10 -11z"/>
</g>
</svg>
