<svg width="512" height="512" viewBox="0 0 512 512" fill="none" xmlns="http://www.w3.org/2000/svg">
<style>
path {
  fill:#00003C; 
}
@media (prefers-color-scheme: dark) {
  path {
    fill: #fff;
  }
}
</style>
<path d="M187.533 182.767H149.887V247.518H187.571C220.434 247.518 247.099 274.51 247.099 307.776C247.099 341.042 220.434 368.034 187.571 368.034C154.708 368.034 128.042 341.042 128.042 307.776V78.4H64V307.814C64 376.863 119.32 432.862 187.533 432.862C255.745 432.862 311.065 376.902 311.065 307.814C311.065 238.727 255.783 182.767 187.533 182.767Z" />
<path d="M303.299 218.899V78.4H239.294V170.336C264.889 180.211 287.001 197.173 303.299 218.899Z" />
<path d="M444.429 246.472C443.932 249.57 443.32 252.63 442.631 255.611L442.593 255.457C435.784 284.579 424.689 299.605 405.331 307.621C424.689 315.598 435.784 330.663 442.593 359.785C443.282 362.767 443.856 365.826 444.391 368.925V369.041C447.299 386.468 448.37 407.612 447.758 432.668H382.491V431.545C382.644 418.068 382.491 405.869 381.573 395.065V394.484C380.502 381.278 378.321 370.203 374.227 361.412L374.151 361.218L374.036 361.024C373.003 358.856 371.855 356.842 370.555 354.944L370.019 354.209C369.809 353.937 369.598 353.657 369.388 353.376C369.178 353.095 368.967 352.814 368.757 352.543C368.298 352.001 367.8 351.459 367.341 350.917L366.921 350.452C361.985 345.147 356.017 341.932 349.054 340.112C348.939 340.076 348.824 340.042 348.708 340.01L348.549 339.966C348.426 339.934 348.303 339.902 348.18 339.872C347.974 339.821 347.768 339.773 347.562 339.725L346.606 339.531C342.551 338.641 338.075 338.137 333.101 338.06H329.62C331.685 328.262 332.757 318.077 332.757 307.698C332.757 297.32 331.685 287.173 329.658 277.337H333.178C338.151 277.259 342.627 276.756 346.682 275.865L347.639 275.672C347.888 275.614 348.136 275.546 348.385 275.478C348.634 275.41 348.882 275.342 349.131 275.284C356.094 273.464 362.062 270.25 366.997 264.944L367.418 264.48C367.915 263.976 368.374 263.434 368.833 262.853C369.238 262.375 369.583 261.898 369.947 261.393L370.096 261.188L370.631 260.452C371.932 258.593 373.08 256.541 374.113 254.372L374.227 254.179L374.304 253.985C378.359 245.194 380.54 234.08 381.688 220.913V220.332C382.568 209.488 382.72 197.29 382.568 183.852V182.729H447.834C448.446 207.784 447.375 228.929 444.429 246.356V246.472Z"/>
</svg>
